<svg width="513" height="513" viewBox="0 0 513 513" fill="none" xmlns="http://www.w3.org/2000/svg">
<path d="M256 159.992C202.98 159.992 160.9 202.972 160.9 255.092C160.9 307.212 202.1 351.992 256 351.992C309.9 351.992 351.1 309.012 351.1 256.892C351.1 204.772 309 159.992 256 159.992ZM509.3 347.892L446.1 255.992L509.25 164.982C515.582 155.857 510.354 143.242 499.424 141.262L390.424 121.562L370.724 12.5624C368.749 1.6324 356.134 -3.5976 347.004 2.7384L256 66.7824L164.1 3.6284C154.975 -2.7036 142.36 2.5214 140.38 13.4524L121.6 122.492L12.56 142.192C1.63302 144.092 -3.59598 156.792 2.73602 164.992L65.89 256.892L2.74002 347.902C-3.59198 357.027 1.63502 369.642 12.564 371.622L121.564 391.322L141.264 500.322C143.239 511.252 155.854 516.482 164.984 510.146L256 446.992L347.01 510.142C356.137 516.476 368.76 511.249 370.73 500.32L390.43 391.32L499.43 371.62C510.4 369.692 515.6 356.992 509.3 347.892ZM256 383.992C185.31 383.992 128.9 326.682 128.9 256.892C128.9 186.202 186.21 129.792 256 129.792C325.79 129.792 383.1 187.092 383.1 256.892C383.1 327.592 326.7 383.992 256 383.992Z" fill="white"/>
</svg>
